<svg width="325" height="386" viewBox="0 0 325 386" fill="none" xmlns="http://www.w3.org/2000/svg">
<path d="M305.775 276.83C278.878 269.444 232.849 256.797 232.849 256.797V96.3725L150.241 46.3182V0H132.198V44.9347L49.1317 99.636V256.587C49.1317 256.587 6.52087 269.86 -20.6616 278.332C-41.2006 284.069 -41.8827 293.728 -42.7432 304.411V365.817C-39.2977 377.468 -32.2987 385.004 -22.3916 385.416C4.4961 385.576 51.4273 385.879 51.4273 385.879L230.553 386.001C230.553 386.001 271.841 385.701 299.739 385.495C312.956 384.981 325.299 379.861 324.723 359.496V301.844C325.009 286.345 314.961 280.043 305.775 276.83ZM-15.2148 356.634L-33.5885 362.081V340.275L-15.2142 334.244V356.634H-15.2148ZM-15.2148 319.909L-33.5891 325.355V303.554L-15.2148 297.529V319.909ZM12.3466 347.442L-6.02767 352.903V331.093L12.3466 325.076V347.442ZM12.3466 310.732L-6.02767 316.178V294.373L12.3466 288.355V310.732ZM39.9074 338.274L21.5331 343.72V321.919L39.9074 315.902V338.274ZM39.9074 301.549L21.5331 306.995V285.194L39.9074 279.168V301.549ZM131.492 274.292L58.2816 323.061V297.809L131.493 249.055V274.292H131.492ZM131.492 228.39L58.2816 277.162V251.911L131.493 203.157V228.39H131.492ZM131.492 182.497L58.2816 231.256V206.024L131.493 157.255V182.497H131.492ZM131.492 137.165L58.2816 185.942V160.696L131.493 111.941V137.165H131.492ZM131.492 91.2715L58.2816 140.031V114.798L131.493 66.0249V91.2715H131.492ZM214.55 366.798H149.909L149.745 73.1969L214.55 111.226V366.798ZM306.335 368.686L242.312 348.887V323.635L306.335 343.43V368.686ZM306.335 327.371L242.312 307.576V282.334L306.335 302.128V327.371Z" fill="white" fill-opacity="0.18"/>
</svg>
