<svg width="9" height="9" viewBox="0 0 9 9" fill="none" xmlns="http://www.w3.org/2000/svg">
<path d="M4.5 0.5625C2.32559 0.5625 0.5625 2.32559 0.5625 4.5C0.5625 6.67441 2.32559 8.4375 4.5 8.4375C6.67441 8.4375 8.4375 6.67441 8.4375 4.5C8.4375 2.32559 6.67441 0.5625 4.5 0.5625ZM4.5 7.76953C2.69473 7.76953 1.23047 6.30527 1.23047 4.5C1.23047 2.69473 2.69473 1.23047 4.5 1.23047C6.30527 1.23047 7.76953 2.69473 7.76953 4.5C7.76953 6.30527 6.30527 7.76953 4.5 7.76953Z" fill="#969696"/>
<g filter="url(#filter0_d_5_443)">
<path d="M4.07812 2.95312C4.07813 3.06501 4.12257 3.17232 4.20169 3.25144C4.28081 3.33055 4.38811 3.375 4.5 3.375C4.61189 3.375 4.71919 3.33055 4.79831 3.25144C4.87743 3.17232 4.92188 3.06501 4.92188 2.95312C4.92188 2.84124 4.87743 2.73393 4.79831 2.65481C4.71919 2.5757 4.61189 2.53125 4.5 2.53125C4.38811 2.53125 4.28081 2.5757 4.20169 2.65481C4.12257 2.73393 4.07813 2.84124 4.07812 2.95312ZM4.71094 3.9375H4.28906C4.25039 3.9375 4.21875 3.96914 4.21875 4.00781V6.39844C4.21875 6.43711 4.25039 6.46875 4.28906 6.46875H4.71094C4.74961 6.46875 4.78125 6.43711 4.78125 6.39844V4.00781C4.78125 3.96914 4.74961 3.9375 4.71094 3.9375Z" fill="#969696"/>
</g>
<defs>
<filter id="filter0_d_5_443" x="0.078125" y="2.53125" width="8.84375" height="11.9375" filterUnits="userSpaceOnUse" color-interpolation-filters="sRGB">
<feFlood flood-opacity="0" result="BackgroundImageFix"/>
<feColorMatrix in="SourceAlpha" type="matrix" values="0 0 0 0 0 0 0 0 0 0 0 0 0 0 0 0 0 0 127 0" result="hardAlpha"/>
<feOffset dy="4"/>
<feGaussianBlur stdDeviation="2"/>
<feComposite in2="hardAlpha" operator="out"/>
<feColorMatrix type="matrix" values="0 0 0 0 0 0 0 0 0 0 0 0 0 0 0 0 0 0 0.25 0"/>
<feBlend mode="normal" in2="BackgroundImageFix" result="effect1_dropShadow_5_443"/>
<feBlend mode="normal" in="SourceGraphic" in2="effect1_dropShadow_5_443" result="shape"/>
</filter>
</defs>
</svg>
