<svg width="32" height="26" viewBox="0 0 32 26" fill="none" xmlns="http://www.w3.org/2000/svg">
<path fill-rule="evenodd" clip-rule="evenodd" d="M10.75 3.4375C10.75 3.15571 10.8619 2.88546 11.0612 2.6862C11.2605 2.48694 11.5307 2.375 11.8125 2.375H28.8125C29.0943 2.375 29.3645 2.48694 29.5638 2.6862C29.7631 2.88546 29.875 3.15571 29.875 3.4375V22.5625C29.875 22.8443 29.7631 23.1145 29.5638 23.3138C29.3645 23.5131 29.0943 23.625 28.8125 23.625H11.8125C11.5307 23.625 11.2605 23.5131 11.0612 23.3138C10.8619 23.1145 10.75 22.8443 10.75 22.5625V18.3125C10.75 18.0307 10.6381 17.7605 10.4388 17.5612C10.2395 17.3619 9.96929 17.25 9.6875 17.25C9.40571 17.25 9.13546 17.3619 8.9362 17.5612C8.73694 17.7605 8.625 18.0307 8.625 18.3125V22.5625C8.625 23.4079 8.96082 24.2186 9.5586 24.8164C10.1564 25.4142 10.9671 25.75 11.8125 25.75H28.8125C29.6579 25.75 30.4686 25.4142 31.0664 24.8164C31.6642 24.2186 32 23.4079 32 22.5625V3.4375C32 2.59212 31.6642 1.78137 31.0664 1.1836C30.4686 0.585825 29.6579 0.25 28.8125 0.25H11.8125C10.9671 0.25 10.1564 0.585825 9.5586 1.1836C8.96082 1.78137 8.625 2.59212 8.625 3.4375V7.6875C8.625 7.96929 8.73694 8.23954 8.9362 8.4388C9.13546 8.63806 9.40571 8.75 9.6875 8.75C9.96929 8.75 10.2395 8.63806 10.4388 8.4388C10.6381 8.23954 10.75 7.96929 10.75 7.6875V3.4375Z" fill="#004F9F"/>
<path fill-rule="evenodd" clip-rule="evenodd" d="M23.1898 13.7521C23.2887 13.6534 23.3672 13.5362 23.4208 13.4071C23.4743 13.278 23.5019 13.1396 23.5019 12.9999C23.5019 12.8601 23.4743 12.7217 23.4208 12.5927C23.3672 12.4636 23.2887 12.3463 23.1898 12.2476L16.8148 5.87263C16.716 5.77384 16.5987 5.69548 16.4696 5.64202C16.3405 5.58855 16.2022 5.56104 16.0625 5.56104C15.9228 5.56104 15.7845 5.58855 15.6554 5.64202C15.5263 5.69548 15.409 5.77384 15.3102 5.87263C15.2115 5.97141 15.1331 6.08869 15.0796 6.21776C15.0262 6.34683 14.9987 6.48517 14.9987 6.62488C14.9987 6.76458 15.0262 6.90292 15.0796 7.03199C15.1331 7.16106 15.2115 7.27834 15.3102 7.37713L19.8726 11.9374H1.1875C0.905707 11.9374 0.635456 12.0493 0.436199 12.2486C0.236942 12.4478 0.125 12.7181 0.125 12.9999C0.125 13.2817 0.236942 13.5519 0.436199 13.7512C0.635456 13.9504 0.905707 14.0624 1.1875 14.0624H19.8726L15.3102 18.6226C15.2115 18.7214 15.1331 18.8387 15.0796 18.9678C15.0262 19.0968 14.9987 19.2352 14.9987 19.3749C14.9987 19.5146 15.0262 19.6529 15.0796 19.782C15.1331 19.9111 15.2115 20.0283 15.3102 20.1271C15.409 20.2259 15.5263 20.3043 15.6554 20.3577C15.7845 20.4112 15.9228 20.4387 16.0625 20.4387C16.2022 20.4387 16.3405 20.4112 16.4696 20.3577C16.5987 20.3043 16.716 20.2259 16.8148 20.1271L23.1898 13.7521Z" fill="#004F9F"/>
</svg>
