<svg width="11" height="13" viewBox="0 0 11 13" fill="none" xmlns="http://www.w3.org/2000/svg">
<path fill-rule="evenodd" clip-rule="evenodd" d="M5.29596 12.8102L5.49996 12.5208L5.29596 12.8102ZM5.70396 12.8102L5.70538 12.8095L5.70892 12.807L5.71954 12.7989L5.76133 12.7688C5.79675 12.7425 5.84846 12.7043 5.91363 12.654C6.04396 12.5541 6.22883 12.4071 6.44948 12.2184C7.02869 11.7233 7.57029 11.1859 8.06979 10.6105C9.24137 9.25542 10.4583 7.32131 10.4583 5.11025C10.4583 3.78921 9.93625 2.52129 9.00692 1.58629C8.54757 1.12353 8.00125 0.75619 7.39938 0.505402C6.79751 0.254613 6.15199 0.125332 5.49996 0.125C4.84796 0.125286 4.20245 0.254511 3.60058 0.505238C2.99871 0.755965 2.45237 1.12324 1.993 1.58594C1.06276 2.52308 0.541002 3.79016 0.541627 5.11061C0.541627 7.32131 1.75854 9.25542 2.93013 10.6105C3.42963 11.1859 3.97123 11.7233 4.55044 12.2184C4.77144 12.4071 4.95596 12.5541 5.08629 12.654C5.15022 12.7033 5.2148 12.7517 5.28002 12.7992L5.29135 12.807L5.29454 12.8095L5.29596 12.8102C5.41815 12.8963 5.58177 12.8963 5.70396 12.8102ZM5.49996 12.5208L5.70396 12.8102L5.49996 12.5208ZM7.27079 5.08333C7.27079 5.55299 7.08422 6.00341 6.75213 6.3355C6.42003 6.6676 5.96961 6.85417 5.49996 6.85417C5.0303 6.85417 4.57989 6.6676 4.24779 6.3355C3.9157 6.00341 3.72913 5.55299 3.72913 5.08333C3.72913 4.61368 3.9157 4.16326 4.24779 3.83117C4.57989 3.49907 5.0303 3.3125 5.49996 3.3125C5.96961 3.3125 6.42003 3.49907 6.75213 3.83117C7.08422 4.16326 7.27079 4.61368 7.27079 5.08333Z" fill="#004F9F"/>
</svg>
