<svg width="17" height="13" viewBox="0 0 17 13" fill="none" xmlns="http://www.w3.org/2000/svg">
<path d="M14.8333 0.833496H3.74996C2.87675 0.833496 2.16663 1.46887 2.16663 2.25016V5.79183H3.74996V3.66683L8.81663 7.06683C8.95371 7.15868 9.12036 7.20832 9.29163 7.20832C9.46289 7.20832 9.62954 7.15868 9.76663 7.06683L14.8333 3.66683V10.0418H8.49996V11.4585H14.8333C15.7065 11.4585 16.4166 10.8231 16.4166 10.0418V2.25016C16.4166 1.46887 15.7065 0.833496 14.8333 0.833496ZM9.29163 5.61475L4.27721 2.25016H14.306L9.29163 5.61475Z" fill="#1D252D"/>
<path d="M0.583374 6.5H6.12504V7.91667H0.583374V6.5ZM2.16671 8.625H6.91671V10.0417H2.16671V8.625ZM4.54171 10.75H7.70837V12.1667H4.54171V10.75Z" fill="#1D252D"/>
</svg>
