<svg width="15" height="14" viewBox="0 0 15 14" fill="none" xmlns="http://www.w3.org/2000/svg">
<path d="M12.2132 10.7301L14.2883 12.6821C14.385 12.7764 14.4386 12.9027 14.4374 13.0338C14.4362 13.1649 14.3803 13.2903 14.2818 13.383C14.1833 13.4757 14.0501 13.5283 13.9108 13.5294C13.7715 13.5306 13.6373 13.4802 13.5371 13.3891L11.462 11.4361C10.106 12.5295 8.35274 13.0862 6.57008 12.9892C4.78742 12.8922 3.11396 12.1491 1.90085 10.9159C0.687747 9.6827 0.0292928 8.05519 0.0636585 6.3749C0.0980243 4.69462 0.822539 3.09217 2.08517 1.90381C3.34781 0.715446 5.05041 0.0335495 6.83571 0.00120526C8.62102 -0.031139 10.3502 0.588583 11.6605 1.73033C12.9708 2.87208 13.7603 4.4471 13.8634 6.1249C13.9664 7.80269 13.375 9.45284 12.2132 10.7291V10.7301ZM6.96871 12.0001C8.51857 12.0001 10.005 11.4206 11.1009 10.3892C12.1968 9.35772 12.8125 7.95877 12.8125 6.50008C12.8125 5.04139 12.1968 3.64244 11.1009 2.61099C10.005 1.57954 8.51857 1.00008 6.96871 1.00008C5.41886 1.00008 3.93247 1.57954 2.83656 2.61099C1.74064 3.64244 1.12496 5.04139 1.12496 6.50008C1.12496 7.95877 1.74064 9.35772 2.83656 10.3892C3.93247 11.4206 5.41886 12.0001 6.96871 12.0001Z" fill="white"/>
</svg>
