<svg width="121" height="121" viewBox="0 0 121 121" fill="none" xmlns="http://www.w3.org/2000/svg">
<path d="M60.5 7.5625L15.125 22.6875V68.0625C15.125 93.1251 35.4374 113.438 60.5 113.438C85.5626 113.438 105.875 93.1251 105.875 68.0625V22.6875L60.5 7.5625ZM97.3672 68.0625C97.3672 88.4222 80.8597 104.93 60.5 104.93C40.1403 104.93 23.6328 88.4222 23.6328 68.0625V29.0684L60.5 16.0703L97.3672 29.0684V68.0625Z" fill="#004F9F"/>
<path d="M44.7132 56.1396C44.3189 55.7436 43.8503 55.4293 43.3342 55.2148C42.8181 55.0004 42.2648 54.89 41.7059 54.89C41.1471 54.89 40.5937 55.0004 40.0776 55.2148C39.5615 55.4293 39.0929 55.7436 38.6986 56.1396C38.3026 56.5339 37.9883 57.0025 37.7738 57.5186C37.5594 58.0347 37.449 58.588 37.449 59.1469C37.449 59.7058 37.5594 60.2591 37.7738 60.7752C37.9883 61.2913 38.3026 61.7599 38.6986 62.1542L53.9891 77.4446L54.2372 77.6928C54.6102 78.0664 55.0531 78.3628 55.5408 78.5651C56.0284 78.7673 56.5511 78.8714 57.0791 78.8714C57.607 78.8714 58.1297 78.7673 58.6174 78.5651C59.105 78.3628 59.548 78.0664 59.9209 77.6928L86.3306 51.2831C86.7042 50.9101 87.0007 50.4672 87.2029 49.9795C87.4052 49.4919 87.5093 48.9692 87.5093 48.4412C87.5093 47.9133 87.4052 47.3906 87.2029 46.9029C87.0007 46.4153 86.7042 45.9723 86.3306 45.5994L85.9997 45.2685C85.6268 44.8949 85.1838 44.5985 84.6962 44.3962C84.2085 44.1939 83.6858 44.0898 83.1579 44.0898C82.63 44.0898 82.1072 44.1939 81.6196 44.3962C81.1319 44.5985 80.689 44.8949 80.316 45.2685L57.0732 68.4996L44.7132 56.1396Z" fill="#004F9F"/>
</svg>
