<svg width="115" height="115" viewBox="0 0 115 115" fill="none" xmlns="http://www.w3.org/2000/svg">
<path d="M43.125 14.375C46.6789 14.375 50.153 15.4288 53.1079 17.4033C56.0628 19.3777 58.366 22.184 59.726 25.4674C61.086 28.7508 61.4418 32.3637 60.7485 35.8493C60.0552 39.3349 58.3438 42.5366 55.8308 45.0496C53.3179 47.5625 50.1161 49.2739 46.6305 49.9672C43.1449 50.6606 39.532 50.3047 36.2487 48.9447C32.9653 47.5847 30.159 45.2816 28.1845 42.3267C26.2101 39.3717 25.1562 35.8976 25.1562 32.3438C25.1562 27.5781 27.0494 23.0077 30.4192 19.6379C33.789 16.2681 38.3594 14.375 43.125 14.375ZM43.125 7.1875C38.1496 7.1875 33.2859 8.66289 29.1489 11.4271C25.012 14.1913 21.7877 18.1202 19.8837 22.7169C17.9796 27.3136 17.4815 32.3717 18.4521 37.2515C19.4228 42.1313 21.8187 46.6137 25.3368 50.1319C28.855 53.6501 33.3374 56.046 38.2173 57.0166C43.0971 57.9873 48.1552 57.4891 52.7519 55.5851C57.3486 53.6811 61.2775 50.4567 64.0417 46.3198C66.8059 42.1829 68.2812 37.3192 68.2812 32.3438C68.2812 25.6719 65.6309 19.2733 60.9132 14.5556C56.1954 9.83788 49.7969 7.1875 43.125 7.1875ZM79.0625 107.812H71.875V89.8438C71.875 85.0781 69.9819 80.5077 66.6121 77.1379C63.2423 73.7681 58.6719 71.875 53.9062 71.875H32.3438C27.5781 71.875 23.0077 73.7681 19.6379 77.1379C16.2681 80.5077 14.375 85.0781 14.375 89.8438V107.812H7.1875V89.8438C7.1875 83.1719 9.83788 76.7733 14.5556 72.0556C19.2733 67.3379 25.6719 64.6875 32.3438 64.6875H53.9062C60.5781 64.6875 66.9767 67.3379 71.6944 72.0556C76.4121 76.7733 79.0625 83.1719 79.0625 89.8438V107.812ZM79.0625 14.375H115V21.5625H79.0625V14.375ZM79.0625 32.3438H115V39.5312H79.0625V32.3438ZM79.0625 50.3125H104.219V57.5H79.0625V50.3125Z" fill="#004F9F"/>
</svg>
