<svg width="174" height="47" viewBox="0 0 174 47" fill="none" xmlns="http://www.w3.org/2000/svg">
<path fill-rule="evenodd" clip-rule="evenodd" d="M18.985 0.282303C10.1153 1.72335 2.96162 8.56143 0.590465 17.8651C0.162801 19.5435 -0.171806 25.3734 0.0956816 26.4857L0.222397 27.0126L1.45787 26.5537L2.69315 26.0948L2.82026 22.9969C2.9737 19.2607 3.38652 17.4442 4.74455 14.5272C7.36953 8.88889 12.0152 4.99198 17.9768 3.4276C20.6109 2.73631 24.7184 2.79354 27.4422 3.55941C34.4411 5.5277 39.6671 11.0322 41.6454 18.5198C42.0018 19.8681 42.06 20.6158 42.0345 23.5144C42.018 25.3893 41.98 27.2487 41.9501 27.6464C41.8967 28.3557 41.9179 28.3774 43.0421 28.7815C44.3955 29.2676 44.465 29.2118 44.7088 27.4417C44.9541 25.6612 44.8773 20.2435 44.5886 18.9692C43.4541 13.9599 41.5207 10.2213 38.3324 6.87061C33.2866 1.5684 26.1103 -0.875489 18.985 0.282303ZM23.1371 28.4212C23.087 43.9158 23.0824 44.0712 22.6904 44.0712C22.299 44.0712 22.2938 43.9158 22.2435 30.5905C22.2154 23.1762 22.1289 17.1098 22.0509 17.1098C21.6559 17.1098 13.562 20.2836 13.4372 20.4875C13.3572 20.6183 13.2905 25.4434 13.2887 31.2103C13.2871 36.9771 13.2188 41.6924 13.1373 41.6887C13.0557 41.6852 12.8329 41.5587 12.6423 41.4077C12.3231 41.155 12.2958 40.5245 12.2958 33.4381C12.2958 27.3675 12.2435 25.7634 12.0483 25.8403C11.9123 25.894 9.3952 26.8477 6.45501 27.9596C3.51482 29.0715 1.04842 30.037 0.974373 30.1052C0.769847 30.2928 2.08293 33.6699 2.99212 35.2942C8.66401 45.4279 20.5351 49.6191 31.1051 45.2191C33.8229 44.0877 37.5802 41.2635 39.436 38.9572C41.4787 36.4185 43.636 32.4546 43.13 32.1704C42.696 31.9268 33.5065 28.4728 33.2923 28.4728C33.1525 28.4728 33.085 30.4791 33.085 34.6295C33.085 40.8681 33.0395 41.2821 32.3524 41.2821C32.1442 41.2821 32.0951 38.887 32.0951 28.7046C32.0951 18.8851 32.0408 16.0844 31.8476 15.9313C31.5371 15.6852 23.7691 12.7651 23.4341 12.7687C23.2404 12.7705 23.1771 16.111 23.1371 28.4212ZM54.6662 23.1012V32.1916H60.111H65.5558V30.7454V29.2992H61.6949H57.8341V21.655V14.0107H56.2501H54.6662V23.1012ZM78.1929 14.213C77.1833 14.531 76.0524 15.327 75.5663 16.0615C74.9608 16.9765 74.4655 18.9086 74.4655 20.3555V21.4484H73.3666H72.2677L72.3272 22.6363L72.3865 23.8243L73.4218 23.8867L74.4572 23.9489L74.5108 28.0187L74.5645 32.0883H76.0494H77.5344L77.588 28.008L77.6417 23.9276H80.3104H82.9792L82.9803 26.2519C82.9815 28.7451 83.1906 29.8922 83.8103 30.8018C84.574 31.9231 86.4886 32.5586 88.3135 32.2966C89.777 32.0865 89.9265 31.8962 89.6679 30.5692L89.4523 29.4631L88.6641 29.5947C87.629 29.7674 86.6719 29.4201 86.3262 28.7461C86.1399 28.3834 86.048 27.5144 86.048 26.1176V24.0309L87.731 23.9276L89.4139 23.8243L89.4733 22.6363L89.5327 21.4484H87.8531C85.8734 21.4484 85.895 21.4763 85.9528 19.0097C85.9732 18.1351 85.9807 17.2994 85.9694 17.1523C85.9544 16.9542 85.578 16.9007 84.5136 16.9457L83.0781 17.0065L82.9792 19.1758L82.8802 21.3451L80.231 21.4029L77.5819 21.4608L77.6739 19.7997C77.7498 18.4341 77.8466 18.0492 78.2186 17.636C78.6754 17.1286 80.0599 16.6966 81.2295 16.6966H81.8361L81.7035 15.7152C81.4653 13.9558 81.5174 14.0087 80.0455 14.0285C79.3177 14.0382 78.4841 14.1213 78.1929 14.213ZM96.5416 14.4235C93.3308 15.5443 91.5657 18.2851 91.3525 22.4814C91.0766 27.9096 93.5537 31.4898 98.0949 32.2266C99.8135 32.5053 101.829 32.2451 103.394 31.5425C104.785 30.9179 104.83 30.8184 104.549 28.9996C104.417 28.1418 104.285 27.4398 104.256 27.4398C104.228 27.4398 103.75 27.7584 103.196 28.148C100.951 29.7242 97.673 29.5719 96.1059 27.8189C95.1943 26.7993 94.7849 25.4147 94.7718 23.3078C94.7567 20.8519 95.1779 19.4536 96.2645 18.3531C97.2415 17.3637 98.3766 17.0259 100.292 17.1542C101.541 17.2376 101.949 17.368 102.99 18.0149C103.664 18.4343 104.244 18.7481 104.279 18.7124C104.313 18.6766 104.438 18.0105 104.557 17.2325C104.815 15.5503 104.697 15.3375 103.111 14.615C101.622 13.9368 98.2202 13.8376 96.5416 14.4235ZM67.4298 18.2421C67.2316 20.1743 67.2593 20.2088 69.0145 20.2088H70.5056V18.556V16.9032H69.0365H67.5672L67.4298 18.2421ZM166.571 23.2561C166.624 28.8395 166.673 29.6891 166.977 30.2698C167.82 31.8784 170.038 32.7086 172.167 32.2117C173.367 31.9313 173.39 31.8832 173.133 30.2568L173.007 29.4581L172.134 29.5829C171.575 29.6628 171.02 29.6029 170.593 29.4168C169.749 29.0488 169.504 28.2235 169.503 25.7354L169.502 23.9276H171.181C172.781 23.9276 172.866 23.9045 172.978 23.4396C173.042 23.1712 173.066 22.6367 173.031 22.2516L172.967 21.5517L171.284 21.4484L169.601 21.3451L169.545 19.1241L169.488 16.9032H168H166.511L166.571 23.2561ZM124.501 20.0156C123.98 20.1042 123.24 20.3697 122.856 20.6059C121.986 21.1414 121.786 21.1445 121.786 20.622C121.786 20.2458 121.654 20.2088 120.307 20.2088H118.828L118.773 25.7354C118.742 28.7751 118.749 31.471 118.789 31.7268C118.857 32.1598 118.962 32.1916 120.32 32.1916H121.778L121.831 27.7007L121.885 23.2099L122.479 22.8985C122.805 22.7274 123.582 22.5868 124.206 22.5859C125.121 22.5849 125.425 22.675 125.789 23.0547C126.223 23.5061 126.244 23.6948 126.34 27.8065L126.439 32.0883H127.923H129.408V27.4398C129.408 23.0285 129.386 22.7473 128.967 21.9306C128.141 20.3185 126.602 19.6584 124.501 20.0156ZM136.668 20.028C136.195 20.1189 135.416 20.4226 134.935 20.703L134.061 21.2126V20.7108C134.061 20.221 134.023 20.2088 132.474 20.2088H130.887L130.94 26.1486L130.992 32.0883H132.477H133.962L134.016 27.7001C134.068 23.4169 134.08 23.3049 134.511 23.0152C135.117 22.608 136.297 22.408 137.132 22.5713C138.382 22.8163 138.503 23.2526 138.615 27.9464L138.714 32.0883H140.199H141.684V27.5369C141.684 23.0814 141.673 22.9642 141.185 21.9587C140.427 20.4011 138.658 19.645 136.668 20.028ZM147.733 20.0503C144.44 20.5596 142.413 23.9524 143.16 27.7055C143.516 29.4928 144.414 30.7031 146.027 31.5671C147.28 32.2381 147.488 32.2846 149.179 32.2712C150.55 32.2604 151.254 32.1478 152.079 31.8065C153.851 31.0733 153.912 30.9909 153.5 29.8593C153.309 29.3343 153.103 28.853 153.042 28.7893C152.981 28.7255 152.45 28.899 151.861 29.1744C150.451 29.8351 149.344 30.001 148.301 29.7081C147.251 29.4129 146.139 28.3104 146.139 27.5638V27.0266H150.006C154.494 27.0266 154.243 27.169 153.917 24.8102C153.439 21.3482 151.08 19.5326 147.733 20.0503ZM109.177 20.2761C107.884 20.7736 106.809 21.7732 106.219 23.0266C105.718 24.0906 105.65 24.4629 105.652 26.0969C105.657 29.0459 106.62 30.7826 108.817 31.8045C110.01 32.3594 112.087 32.4433 113.569 31.9964C115.014 31.5609 116.5 29.961 116.945 28.3625C117.92 24.8633 116.484 21.31 113.693 20.3179C112.65 19.947 110.094 19.9235 109.177 20.2761ZM158.804 20.3195C157.638 20.6947 156.382 21.8304 155.839 23.0012C155.241 24.2896 155.089 26.769 155.514 28.2945C155.93 29.7887 157.081 31.1557 158.456 31.7912C160.298 32.6418 163 32.4069 164.697 31.2491L165.139 30.9477L164.73 29.8651C164.505 29.2699 164.297 28.7573 164.267 28.7263C164.237 28.6951 163.822 28.9032 163.343 29.1887C162.085 29.9391 160.468 29.9242 159.591 29.154C158.757 28.4222 158.414 27.5177 158.415 26.0519C158.415 23.0964 160.479 21.7351 163.078 22.9764C163.704 23.2756 164.242 23.4939 164.273 23.4615C164.304 23.4291 164.515 22.9512 164.741 22.3996C165.24 21.1864 165.142 21.011 163.636 20.4232C162.362 19.9257 160.174 19.8788 158.804 20.3195ZM67.427 21.5038C67.374 21.6478 67.3546 24.0883 67.3837 26.927L67.4367 32.0883L68.9712 32.1487L70.5056 32.209V26.7254V21.2418H69.0145C67.9929 21.2418 67.493 21.3242 67.427 21.5038ZM146.9 23.1099C146.441 23.614 146.139 24.1464 146.139 24.4528V24.9606H148.713C151.175 24.9606 151.287 24.9422 151.287 24.5371C151.287 23.9398 150.774 22.9776 150.254 22.5973C149.985 22.401 149.391 22.2748 148.737 22.2748C147.738 22.2748 147.607 22.3341 146.9 23.1099ZM109.986 22.8733C108.727 23.6743 108.299 26.4849 109.164 28.2741C110.249 30.5194 113.128 30.2905 113.884 27.8987C114.231 26.8018 114.169 24.9435 113.754 24.0321C113.095 22.5832 111.306 22.0331 109.986 22.8733Z" fill="#004F9F"/>
</svg>
